<svg width="132" height="50" viewBox="0 0 132 50" fill="none" xmlns="http://www.w3.org/2000/svg">
<path fill-rule="evenodd" clip-rule="evenodd" d="M54.5957 0.000152588H60.2097H72.0734H75.3503V5.68424L71.3929 13.8095H65.3473H60.2097V21.0141H54.5957V13.8095V8.12543V5.68424V0.000152588ZM69.3048 5.68424H60.2097V8.12543H68.1159L69.3048 5.68424V5.68424Z" fill="white"/>
<path fill-rule="evenodd" clip-rule="evenodd" d="M75.3501 0.000152588H80.9642H92.8277H96.1047V5.68424L92.1472 13.8095H92.1244L95.6334 21.0141H89.5879L86.0789 13.8095H80.9642V21.0141H75.3501V13.8095V8.12543V5.68424V0.000152588ZM90.0592 5.68424H80.9642V8.12543H86.0789H88.8703L90.0592 5.68424V5.68424Z" fill="white"/>
<path fill-rule="evenodd" clip-rule="evenodd" d="M101.247 5.68424V15.3299H110.774V5.68424H101.247V5.68424ZM110.774 0.000152588H116.388V5.68424V15.3299L110.774 21.0141H101.247H95.6334V15.3299V5.68424L101.247 0.000152588H110.774V0.000152588Z" fill="white"/>
<path fill-rule="evenodd" clip-rule="evenodd" d="M60.2096 33.9028V36.3438H63.6458H69.7363V33.9028H60.2096ZM60.2096 42.0279V49.2325H54.5957V42.0279V36.3438V33.9028L60.2096 28.2186H69.7363H75.3502V33.9028V36.3438V37.3817V42.0279V43.5484V49.2325H69.7363V42.0279H63.6458H60.2096V42.0279Z" fill="#D42E12"/>
<path fill-rule="evenodd" clip-rule="evenodd" d="M84.8767 28.2186H90.4908V43.5485L84.8767 49.2326H75.3501H69.7362V43.5485V37.3818V28.2186H75.3501V37.3818V43.5485H84.8767V28.2186Z" fill="#D42E12"/>
<path fill-rule="evenodd" clip-rule="evenodd" d="M98.0611 28.2186H103.675H105.631H111.245V33.9028H103.675V37.3818V43.5485V49.2326H98.0611V37.3818V33.9028H90.4908V28.2186H98.0611Z" fill="#D42E12"/>
<path fill-rule="evenodd" clip-rule="evenodd" d="M116.859 33.9028V43.5485H126.386V33.9028H116.859ZM126.386 28.2186H132V33.9028V43.5485L126.386 49.2326H116.859H111.245V43.5485V33.9028L116.859 28.2186H126.386Z" fill="#D42E12"/>
<path d="M48.9815 0H43.3675V49.2324H48.9815V0Z" fill="#D42E12"/>
<path fill-rule="evenodd" clip-rule="evenodd" d="M43.3677 0.00012207H27.8909L13.481 12.1207L9.63578 8.85404H0.927811L4.90599 12.8818H8.88429L31.0961 19.5429L25.2387 15.343H43.3677V0.00012207Z" fill="white"/>
<path fill-rule="evenodd" clip-rule="evenodd" d="M9.06141 17.3132L21.1727 25.8165L11.6251 24.7424L7.38263 17.2538L9.06141 17.3132Z" fill="white"/>
<path fill-rule="evenodd" clip-rule="evenodd" d="M43.3677 32.3508H9.72444L27.4051 45.0608H4.59699L0 25.0111V49.2325H12.7301V48.1715H43.3677V32.3508Z" fill="white"/>
<path fill-rule="evenodd" clip-rule="evenodd" d="M43.3677 26.1285L22.098 25.9047L35.64 27.4441H43.3677V26.1285Z" fill="white"/>
</svg>
