<svg width="40" height="40" viewBox="0 0 25 24" fill="none" xmlns="http://www.w3.org/2000/svg">
<path d="M10.0936 3.94014C10.184 3.39768 10.6533 3.00009 11.2033 3.00009H13.7972C14.3472 3.00009 14.8165 3.39768 14.9069 3.94014L15.1204 5.22119C15.1828 5.59523 15.4327 5.9068 15.7645 6.09045C15.8387 6.13151 15.912 6.17393 15.9844 6.21766C16.3095 6.41393 16.7048 6.47495 17.0604 6.34175L18.2772 5.88587C18.7922 5.69293 19.3712 5.9006 19.6462 6.37687L20.9432 8.6233C21.2181 9.09957 21.1085 9.70482 20.6839 10.0544L19.6795 10.8812C19.387 11.122 19.242 11.4938 19.2491 11.8726C19.2498 11.915 19.2502 11.9575 19.2502 12.0001C19.2502 12.0427 19.2498 12.0852 19.2491 12.1275C19.242 12.5064 19.387 12.8782 19.6795 13.119L20.6839 13.9458C21.1085 14.2953 21.2181 14.9006 20.9432 15.3769L19.6462 17.6233C19.3712 18.0996 18.7922 18.3072 18.2772 18.1143L17.0604 17.6584C16.7048 17.5252 16.3095 17.5862 15.9844 17.7825C15.912 17.8263 15.8387 17.8687 15.7645 17.9097C15.4327 18.0934 15.1828 18.4049 15.1204 18.779L14.9069 20.06C14.8165 20.6025 14.3472 21.0001 13.7972 21.0001H11.2033C10.6533 21.0001 10.184 20.6025 10.0936 20.06L9.88005 18.779C9.81771 18.4049 9.56774 18.0934 9.23597 17.9097C9.16179 17.8687 9.08847 17.8263 9.01604 17.7825C8.69101 17.5863 8.29568 17.5252 7.94011 17.6584L6.72325 18.1143C6.20826 18.3072 5.62926 18.0996 5.35429 17.6233L4.05731 15.3769C3.78234 14.9006 3.89199 14.2954 4.31657 13.9458L5.32092 13.119C5.61343 12.8782 5.75843 12.5064 5.75141 12.1276C5.75063 12.0852 5.75023 12.0427 5.75023 12.0001C5.75023 11.9575 5.75063 11.915 5.75141 11.8726C5.75843 11.4938 5.61343 11.122 5.32092 10.8812L4.31657 10.0544C3.89199 9.70484 3.78234 9.09958 4.05731 8.62332L5.35429 6.37688C5.62926 5.90061 6.20825 5.69295 6.72325 5.88588L7.9401 6.34176C8.29566 6.47496 8.69099 6.41394 9.01603 6.21767C9.08846 6.17393 9.16179 6.13151 9.23597 6.09045C9.56774 5.9068 9.81771 5.59523 9.88005 5.22119L10.0936 3.94014Z" stroke="#FFFFFF" stroke-width="1.5" stroke-linecap="round" stroke-linejoin="round"/>
<path d="M15.5 12C15.5 13.6569 14.1569 15 12.5 15C10.8431 15 9.5 13.6569 9.5 12C9.5 10.3432 10.8431 9.00001 12.5 9.00001C14.1569 9.00001 15.5 10.3432 15.5 12Z" stroke="#FFFFFF" stroke-width="1.5" stroke-linecap="round" stroke-linejoin="round"/>
</svg>
