<svg width="25" height="24" viewBox="0 0 25 24" fill="none" xmlns="http://www.w3.org/2000/svg">
<path d="M15.2404 9L14.8942 18M10.1058 18L9.75962 9M19.7276 5.79057C20.0696 5.84221 20.4104 5.89747 20.75 5.95629M19.7276 5.79057L18.6598 19.6726C18.5696 20.8448 17.5921 21.75 16.4164 21.75H8.58357C7.40786 21.75 6.43037 20.8448 6.3402 19.6726L5.27235 5.79057M19.7276 5.79057C18.5812 5.61744 17.4215 5.48485 16.25 5.39432M4.25 5.95629C4.58957 5.89747 4.93037 5.84221 5.27235 5.79057M5.27235 5.79057C6.41878 5.61744 7.57849 5.48485 8.75 5.39432M16.25 5.39432V4.47819C16.25 3.29882 15.3393 2.31423 14.1606 2.27652C13.6092 2.25889 13.0556 2.25 12.5 2.25C11.9444 2.25 11.3908 2.25889 10.8394 2.27652C9.66065 2.31423 8.75 3.29882 8.75 4.47819V5.39432M16.25 5.39432C15.0126 5.2987 13.762 5.25 12.5 5.25C11.238 5.25 9.98744 5.2987 8.75 5.39432" stroke="#D93218" stroke-width="1.5" stroke-linecap="round" stroke-linejoin="round"/>
</svg>
